<?xml version="1.0" encoding="UTF-8"?>
<svg id="Layer_1" xmlns="http://www.w3.org/2000/svg" xmlns:xlink="http://www.w3.org/1999/xlink" viewBox="0 0 440.92 88.26">
  <defs>
    <style>
      .cls-1 {
        fill: url(#linear-gradient-2);
      }

      .cls-2 {
        letter-spacing: -.09em;
      }

      .cls-3 {
        letter-spacing: -.07em;
      }

      .cls-4 {
        letter-spacing: -.05em;
      }

      .cls-5 {
        letter-spacing: -.05em;
      }

      .cls-6 {
        letter-spacing: -.07em;
      }

      .cls-7 {
        letter-spacing: -.08em;
      }

      .cls-8, .cls-9 {
        fill: #be1e2d;
      }

      .cls-10 {
        letter-spacing: -.05em;
      }

      .cls-11 {
        letter-spacing: -.07em;
      }

      .cls-12 {
        letter-spacing: -.08em;
      }

      .cls-13 {
        fill: url(#linear-gradient);
      }

      .cls-9 {
        font-family: MyriadPro-Regular, 'Myriad Pro';
        font-size: 67px;
      }
    </style>
    <linearGradient id="linear-gradient" x1="0" y1="40.98" x2="154.97" y2="40.98" gradientUnits="userSpaceOnUse">
      <stop offset=".23" stop-color="#852b35"/>
      <stop offset=".56" stop-color="#bd202e"/>
    </linearGradient>
    <linearGradient id="linear-gradient-2" x1="154.97" y1="6.6" x2="288.92" y2="6.6" gradientUnits="userSpaceOnUse">
      <stop offset=".56" stop-color="#bd202e"/>
      <stop offset="1" stop-color="#fff"/>
    </linearGradient>
  </defs>
  <g>
    <path class="cls-8" d="M95.37,8.91s0,0,0,0c0,0,0,0-.01,0h0Z"/>
    <path class="cls-13" d="M110.7.91c-3.97,0-7.93,0-11.9,0-.86,0-1.71.03-2.56-.12-.19-.03-.4-.02-.6-.03-.46,0-.91-.01-1.37-.02-.26,0-.52,0-.77-.05-.42-.07-.85-.09-1.28-.1-.83-.02-1.66.01-2.47-.13-.19-.03-.4-.02-.6-.03-.46,0-.91,0-1.37-.02-.28,0-.57-.03-.85-.05-.43-.03-.85-.08-1.28-.09-1.17-.02-2.34-.02-3.51-.03-.34,0-.68-.02-1.03-.04-.37-.02-.74-.05-1.11-.05-1.65-.02-3.31-.04-4.96-.07-.37,0-.74-.05-1.11-.06-.66-.01-1.31-.05-1.97,0-.66.05-1.31.07-1.97.08-.43,0-.85.02-1.28.1-.56.1-1.14.12-1.71.04-.64-.09-1.25,0-1.87.11-.28.05-.56.12-.83.2-.61.17-1.22.26-1.86.21-.2-.02-.4,0-.6-.01-.47-.02-.91.06-1.3.31-.22.14-.47.18-.73.2-.57.06-1.14.11-1.7.2-2.11.35-4.19.82-6.21,1.49-.92.3-1.83.61-2.74.93-.46.16-.91.31-1.41.31-.14,0-.28.04-.42.06-.82.14-1.6.39-2.39.64-2.91.92-5.67,2.15-8.35,3.54-2.81,1.46-5.46,3.14-8.05,4.93-2.77,1.91-5.43,3.95-8.05,6.04-.26.21-.52.43-.77.64-.11.09-.12.28-.03.37.18.18.36.34.54.52.48.46.74,1.02.79,1.67.05.65.03,1.3-.14,1.93-.1.37-.19.73-.28,1.1-.1.4-.26.77-.53,1.1-.12.15-.23.31-.34.47-.69.93-1.38,1.86-2.07,2.79-.92,1.24-1.83,2.48-2.75,3.72-1.51,2.04-3.01,4.08-4.52,6.11-.11.15-.23.31-.36.45-.07.08-.17.15-.28.18-.38.15-.85.01-1.06-.31-.09-.14-.18-.28-.22-.43-.09-.34-.2-.68-.23-1.03-.07-.92-.22-1.83-.23-2.75,0-.4-.1-.8-.15-1.21-.01-.09-.1-.17-.16-.16-.08.02-.17.04-.22.09-.13.14-.24.3-.36.45-.88,1.2-1.58,2.51-2.19,3.85-.79,1.71-1.54,3.43-2.31,5.15-.22.5-.41,1.01-.54,1.54-.26,1.05,0,1.98.76,2.79.18.2.46.33.53.62-.19.3-.55.24-.82.35-.47.18-.84.46-1.07.89-.14.26-.25.55-.33.83-.1.36-.17.74-.25,1.11-.29,1.35-.53,2.71-.66,4.08-.05.48-.06.97-.27,1.43v2.6c.06.18.13.36.16.54.07.48.11.97.19,1.45.14.85.31,1.7.55,2.54.12.42.22.84.33,1.26.14.54.13,1.07-.17,1.57-.08.14-.14.3-.2.45-.19.46-.25.94-.23,1.43.02.39.15.74.38,1.06.23.31.49.6.8.84.64.5,1.27,1.01,1.91,1.51.6.47,1.14.98,1.6,1.57.39.5.82.97,1.24,1.45.47.55,1.04,1,1.65,1.41.3.2.64.36.97.5.99.41,1.99.41,2.98-.03.55-.24,1.06-.53,1.52-.91.15-.12.3-.25.45-.38.25-.2.53-.32.86-.31.43,0,.85-.07,1.27-.15.67-.13,1.34-.25,2.02-.33.82-.09,1.64-.22,2.47-.21.17,0,.34-.02.51-.04.45-.07.91-.08,1.37-.08.68,0,1.37,0,2.05,0,.26,0,.52,0,.77.03.6.08,1.19.09,1.79.12.63.03,1.25.1,1.87.16.06,0,.11,0,.17,0,.17.02.34.03.51.06.62.08,1.24.17,1.86.25.65.09,1.3.19,1.94.28.76.11,1.52.24,2.28.35.99.14,1.98.21,2.97.32.96.1,1.92.21,2.89.32,1.16.14,2.3.37,3.42.7,2.02.59,3.82,1.56,5.35,2.96.16.15.33.3.49.45.25.25.57.35.93.34.4,0,.8-.02,1.2-.02,12.73-.02,25.45-.04,38.18-.06,4.22,0,8.45,0,12.67.02,1.43,0,2.85.02,4.28.03.31,0,.63.04.94.06.4.03.8.08,1.19.08,2.14,0,4.28,0,6.42,0,.34,0,.68-.04,1.02-.07.88-.08,1.76-.16,2.64.04.14.03.28.04.43.03.55-.04.98-.27,1.25-.73.06-.1.06-.22-.02-.31-.11-.13-.22-.25-.35-.36-.74-.64-1.35-1.39-1.88-2.2-.43-.67-.83-1.35-1.25-2.03-.39-.63-.79-1.25-1.18-1.88-.13-.21-.27-.41-.38-.63-.3-.61-.59-1.23-.89-1.85-.64-1.36-1.28-2.72-1.93-4.07-.2-.42-.37-.85-.49-1.3-.43-1.54-.77-3.11-1.02-4.68-.1-.64-.19-1.29-.22-1.93-.04-1.03-.02-2.05-.04-3.08-.01-.82.1-1.62.25-2.42.34-1.89.81-3.76,1.43-5.59.56-1.65,1.21-3.27,1.9-4.87,1.02-2.35,2.16-4.65,3.25-6.97.19-.4.43-.76.73-1.1.5-.56.91-1.18,1.32-1.8.77-1.17,1.57-2.32,2.43-3.43.86-1.11,1.76-2.2,2.7-3.25.82-.91,1.69-1.76,2.55-2.62.73-.72,1.52-1.39,2.31-2.05,1.55-1.28,3.18-2.47,4.9-3.54,2.49-1.55,5.11-2.85,7.87-3.92,2.28-.88,4.61-1.58,6.99-2.18,1.27-.32,2.55-.61,3.84-.87V.91c-14.75,0-29.51,0-44.26,0ZM98.02,7.35c.2-.29.47-.53.78-.73.34-.23.71-.31,1.12-.29.03,0,.06.02.07.03.02.01.02.04.02.06-.01.02-.02.05-.04.07-.04.03-.09.07-.14.08-.44.14-.81.36-1.1.71-.14.17-.34.28-.58.28-.05,0-.12-.03-.14-.07-.02-.04-.01-.11.01-.15ZM96.51,7.98c.17-.17.39-.2.62-.14.04.01.09.07.09.11,0,.04-.03.1-.06.13-.13.12-.31.11-.47.12-.06,0-.11-.01-.16-.03-.02,0-.06-.04-.06-.05,0-.05,0-.11.04-.14ZM95.38,8.9c.04-.05.08-.12.17-.1-.01.02-.02.05-.03.05-.04.02-.09.03-.14.04,0,0,0,0,0,0h0s0,0,.01,0ZM94.53,9.41l.03.03-.04.02v-.04ZM93.54,10.05l-.03.05-.03-.04h.06ZM76.96,26.51c.08-.35.23-.67.45-.96.27-.35.54-.7.82-1.04,1.32-1.62,2.65-3.25,3.97-4.87.84-1.03,1.67-2.05,2.51-3.08.23-.28.48-.52.84-.66.41-.15.69-.47.96-.79.22-.25.43-.51.65-.75.17-.18.37-.34.61-.43.1-.04.22-.06.33-.07.16-.02.34.16.32.31-.06.44-.25.83-.59,1.14-.23.2-.47.39-.72.57-.44.31-.82.66-1.06,1.14-.08.17-.22.31-.37.44-1.18,1.05-1.88,2.36-2.32,3.81-.08.26-.17.51-.34.74-.25.32-.35.68-.35,1.06,0,.14,0,.27,0,.41,0,.22-.05.43-.18.62-.22.33-.31.69-.31,1.08,0,.11,0,.22-.01.32-.03.32-.07.51-.55.58-.71.1-1.36.39-1.99.7-.43.21-.86.41-1.3.61-.13.06-.27.09-.41.12-.08.02-.17.01-.21.01-.3,0-.48-.11-.61-.31-.14-.22-.18-.46-.12-.7ZM61.85,45.05c.6-.65,1.22-1.29,1.82-1.94.49-.53.98-1.05,1.47-1.58,1.68-1.84,3.36-3.68,5.03-5.52.26-.29.49-.59.74-.89.19-.23.37-.48.58-.7.71-.74,1.44-1.46,2.17-2.19.08-.08.16-.15.24-.23.18-.18.39-.31.66-.34.3-.03.54-.14.69-.41.08-.15.23-.25.4-.28.32-.07.59-.17.75-.47.08-.15.24-.22.4-.29,1-.4,2-.8,2.99-1.2.08-.03.16-.06.24-.07.3-.04.53-.17.69-.43.09-.15.24-.22.41-.28.46-.15.92-.3,1.38-.45,1.05-.34,2.11-.67,3.16-1.02.73-.24,1.43-.55,2.1-.91.46-.25.94-.36,1.47-.34.48.02.97,0,1.45-.02.43-.02.85-.07,1.28-.09.57-.02,1.14-.04,1.71-.04.19,0,.39.06.58.11.33.08.51.21.53.64.03.49.04.97.04,1.46,0,.36-.1.69-.31.99-.33.47-.64.96-.96,1.44-1.14,1.71-2.27,3.43-3.43,5.14-1.13,1.66-2.35,3.26-3.69,4.77-.53.6-1.1,1.17-1.65,1.76-.23.25-.52.4-.86.51-1.32.42-2.64.86-3.96,1.3-2.07.68-4.14,1.37-6.22,2.05-.19.06-.38.12-.57.18-.73.26-1.49.36-2.27.35-.28-.02-.57-.04-.85-.05-.3-.02-.56.07-.75.3-.04.04-.07.08-.11.12-.1.11-.21.17-.37.17-1.06.01-2.1.2-3.11.47-.63.17-1.28.26-1.93.37-.31.05-.63.06-.94,0-.42-.09-.84-.11-1.27-.03-.24.05-.5-.16-.55-.41-.06-.3-.06-.6.07-.88.09-.2.2-.39.32-.57.13-.18.28-.34.43-.51ZM23.49,20.8c.04-.45.25-.83.61-1.12.26-.21.53-.41.8-.61,1.74-1.27,3.48-2.53,5.22-3.8.41-.3.81-.6,1.21-.9.14-.1.28-.18.43-.26.22-.12.44-.05.58.17.09.15.13.3.08.46-.09.33-.27.59-.62.73-.62.24-1.11.66-1.54,1.13-.38.41-.73.83-1.08,1.26-.35.43-.72.84-1.12,1.22-.35.33-.74.59-1.19.78-.08.03-.16.06-.24.09-.46.19-.81.5-1.03.93-.13.24-.22.5-.34.74-.11.22-.21.45-.36.64-.21.28-.51.42-.89.39-.24-.02-.45-.17-.48-.39-.04-.29-.06-.59-.08-.81.02-.27.02-.46.04-.64ZM11.43,42.11c.08-.43.26-.83.52-1.19.18-.24.37-.48.56-.72.25-.3.44-.64.49-1.02.05-.39.23-.72.47-1.03.83-1.1,1.64-2.21,2.47-3.32.92-1.24,1.84-2.47,2.76-3.71.74-.99,1.48-1.99,2.22-2.99.2-.27.43-.49.77-.61.32-.11.59-.33.83-.56.35-.32.65-.68.93-1.05.28-.37.57-.75.87-1.1.42-.5.95-.86,1.61-1.01.19-.04.39-.05.59-.06.2,0,.39.16.43.34.08.3.06.59-.09.87-.2.36-.4.72-.63,1.06-.72,1.11-1.53,2.15-2.38,3.17-1.79,2.14-3.55,4.3-5.17,6.56-.93,1.3-1.84,2.61-2.63,3.99-.08.14-.16.29-.21.44-.04.11-.01.23.08.3.21.14.42.28.65.39,1.05.49,2.14.89,3.28,1.17.97.23,1.94.43,2.94.53.71.08,1.41.19,2.12.26.91.09,1.82.14,2.73.21.26.02.52.01.77.06.54.1,1.08.11,1.62.11,1.34,0,2.68,0,4.02,0h0c1.23,0,2.45,0,3.68,0,.63,0,1.25,0,1.88.08.48.05.97.04,1.45.04.54,0,1.08.04,1.61.16.58.14,1.18.21,1.77.3.22.03.45.05.68.05.74,0,1.48.02,2.23,0,.89-.03,1.75-.2,2.61-.43,1.87-.49,3.54-1.35,5.06-2.48.2-.15.4-.3.6-.46.34-.29.71-.54,1.12-.73.46-.22.85-.54,1.26-.84.27-.2.54-.4.81-.59.66-.48,1.41-.7,2.24-.65.1,0,.2.12.18.23-.02.13-.04.27-.08.4-.29.94-.76,1.81-1.31,2.63-.52.78-1.11,1.5-1.72,2.22-.77.91-1.53,1.82-2.12,2.84-.31.54-.78.77-1.37.83-.28.03-.57.03-.85.03-.6-.01-1.19.05-1.77.23-.52.16-1.05.22-1.59.29-.82.12-1.65.13-2.47.12-.31,0-.63-.04-.94-.06-.34-.02-.68-.07-1.02-.07-1.14-.01-2.28-.02-3.42-.02-4.19,0-8.39-.01-12.58,0-.55,0-1.08-.11-1.61-.21-1.98-.39-3.96-.81-5.94-1.19-1.12-.21-2.24-.37-3.37-.55-.87-.14-1.74-.32-2.59-.54-1.1-.28-2.19-.61-3.28-.93-.3-.09-.59-.2-.86-.35-.38-.2-.69-.48-.83-.89-.06-.18-.08-.37-.05-.56ZM70.98,63.81c-.23.34-.46.68-.68,1.03-.63,1.03-1.25,2.06-1.88,3.09-.3.49-.6.98-.91,1.47-.54.86-1.02,1.75-1.47,2.66-.36.74-.62,1.51-.85,2.29-.11.36-.23.72-.36,1.08-.08.2-.18.4-.3.58-.58.93-1.43,1.38-2.74,1.26-.99-.09-1.97-.3-2.95-.48-2.4-.44-4.81-.91-7.21-1.34-1.17-.21-2.36-.36-3.54-.58-1.34-.24-2.7-.39-4.05-.58-.73-.11-1.47-.14-2.21-.21-.2-.02-.4-.05-.59-.07-.25-.03-.51-.06-.77-.07-.4-.02-.79-.05-1.19-.12-.5-.08-1.02-.12-1.52-.19-1.33-.17-2.64-.4-3.96-.62-2.22-.37-4.41-.85-6.62-1.27-.67-.13-1.34-.25-2.02-.36-.2-.03-.4-.03-.6-.05-.43-.02-.85-.05-1.28-.07-.14,0-.29,0-.43,0-1.62.11-3.25.09-4.87.05-.2,0-.4-.04-.59-.06-.11-.01-.22-.05-.34-.05-.72,0-1.41-.16-2.12-.21-.74-.06-1.47-.17-2.2-.26-.06,0-.11-.02-.17-.02-1.11,0-2.21-.24-3.33-.18-.23.01-.46,0-.68,0-.54,0-.99-.21-1.39-.54-.41-.35-.72-.77-.97-1.23-.08-.14-.15-.29-.21-.44-.58-1.41-1.15-2.82-1.57-4.29-.42-1.43-.72-2.89-.91-4.37-.12-.96-.25-1.93-.24-2.91,0-.43-.04-.86-.09-1.29-.07-.63.04-1.24.17-1.85.02-.1.09-.2.15-.29.16-.22.38-.33.66-.3.28.03.56.1.82.21.34.14.68.27,1.02.41,2.86,1.16,5.81,2.07,8.85,2.72,1.31.28,2.62.53,3.94.73.62.1,1.24.16,1.87.22.82.09,1.64.18,2.46.26.25.03.51.04.77.05.26.01.51,0,.77.02.74.05,1.46.14,2.17.4,1.17.44,2.4.69,3.66.73.14,0,.29,0,.43.03.53.11,1.08.1,1.62.11.65.02,1.31,0,1.96.13.16.03.34.03.51.03.4.01.8.02,1.19.11.16.04.34.04.51.05.37.02.74.03,1.1.11.17.04.34.04.51.05.4.02.8.04,1.19.12.19.04.4.03.6.05.28.03.57.06.85.09.23.02.45.04.68.07.28.03.57.06.85.09.2.02.4.04.59.07.34.04.68.07,1.02.1.23.02.45.04.68.06.25.03.51.05.76.08.25.03.51.05.76.08.25.03.51.05.76.08.25.03.51.06.76.08.28.03.57.06.85.09.26.03.51.05.77.07.31.03.62.06.93.09.08,0,.17.03.25.04.85.07,1.7.13,2.56.2.17.01.34,0,.51.04.54.1,1.08.11,1.62.13.17,0,.35,0,.51.03.68.12,1.36.12,2.05.13.17,0,.34,0,.51.03.88.14,1.76.12,2.65.13.63,0,1.25.02,1.88.09.51.06,1.02.05,1.54.07.4.01.8.01,1.19.09.11.02.23.04.34.04.89,0,1.76.16,2.64.21.11,0,.23,0,.34.04.45.11.9.12,1.36.05.13-.02.28.01.41.06.23.08.37.25.43.47.04.16.05.32.07.4,0,.39-.07.67-.24.93ZM148.82,8.31s-.09.07-.14.1c-1.11.67-2.2,1.35-3.38,1.9-3.56,1.66-6.98,3.57-10.25,5.7-1.9,1.24-3.75,2.56-5.55,3.93-1.31,1-2.59,2.04-3.84,3.11-1.65,1.41-3.29,2.84-4.84,4.35-1.16,1.12-2.29,2.27-3.42,3.41-.53.53-1.01,1.11-1.41,1.73-.68,1.04-1.49,1.97-2.31,2.91-1.86,2.13-3.58,4.35-5.09,6.71-1.55,2.45-2.77,5.03-3.64,7.76-.25.78-.45,1.57-.64,2.35-.11.45-.23.89-.39,1.33-.07.2-.14.41-.21.62-.19.55-.21,1.11-.09,1.68.06.29.12.58.19.87.13.56.13,1.13.1,1.7,0,.13-.03.27-.08.4-.18.52-.69.83-1.27.74-.39-.06-.78-.16-1.17-.25-.33-.08-.66-.16-.99-.25-.42-.12-.84-.14-1.27-.05-.26.06-.5.03-.76-.02-.75-.15-1.51-.29-2.27-.42-1.04-.18-2.07-.36-3.13-.45-.74-.07-1.47-.17-2.21-.26-.06,0-.11-.02-.17-.02-1.25-.02-2.5-.24-3.76-.2-.51.01-1.02,0-1.54-.08-.34-.05-.68-.04-1.02-.04-2.2,0-4.39,0-6.59,0-.6,0-1.19-.05-1.78-.19-1.41-.34-2.85-.52-4.32-.51-2.08.01-4.17,0-6.25,0,0-.02-.02-.04-.02-.06.7-.11,1.4-.21,2.1-.32.59-.09,1.18-.18,1.77-.27.48-.07.96-.14,1.44-.21,1.27-.18,2.54-.35,3.8-.54,1.18-.17,2.37-.34,3.55-.53.26-.04.5-.07.76,0,.35.09.68.05,1-.1.44-.21.91-.27,1.4-.32,1.05-.11,2.09-.29,3.11-.54,2.3-.54,4.51-1.34,6.69-2.23.92-.38,1.79-.83,2.61-1.38.52-.34,1.06-.62,1.64-.86,1.92-.8,3.52-2,4.88-3.48,1.32-1.43,2.41-3.02,3.37-4.68.1-.17.19-.33.28-.5.56-1.13,1.26-2.18,1.99-3.21.99-1.39,1.96-2.79,2.95-4.18,1.5-2.11,3.09-4.16,4.78-6.13,1.14-1.32,2.32-2.6,3.59-3.81,2.26-2.15,4.62-4.18,7.12-6.07,1.94-1.47,3.96-2.84,6.08-4.07,1.36-.79,2.76-1.53,4.19-2.19,2.86-1.32,5.83-2.33,8.93-3,1.19-.26,2.4-.47,3.62-.56.25-.02.51-.07.76-.12.47-.08.84.07,1.12.43.08.11.07.27-.05.36Z"/>
    <path class="cls-1" d="M288.73.9c-24.44,0-48.88,0-73.33.01-10.84,0-21.69,0-32.53,0-9.3,0-18.6,0-27.91,0v11.39c1.25-.25,2.5-.47,3.77-.64,1.18-.17,2.36-.35,3.56-.46.14-.01.28-.04.42-.06.25-.03.51-.07.76-.08.88-.06,1.75-.2,2.64-.2.06,0,.11,0,.17-.02.45-.1.91-.09,1.36-.11.6-.02,1.2-.03,1.79-.08.4-.04.79-.07,1.19-.07,1.11-.01,2.23-.02,3.34-.04.46,0,.91-.04,1.37-.07.86-.06,1.72-.1,2.56,0,1,.11,1.99.1,2.99.12.81.01,1.59-.11,2.36-.33.42-.12.83-.18,1.26-.17,1,.01,2,.01,3,.03.28,0,.57.03.85.04.43.02.85.07,1.28.07,1.8.02,3.6.03,5.39.04.34,0,.69,0,1.03.03.63.08,1.25.08,1.88.09,6.85.05,13.7.05,20.55.01.71,0,1.43-.01,2.14-.01,5.02.01,10.04.04,15.07.04,13.93,0,27.85-.02,41.78-.03,3.81,0,7.63.01,11.44.02-.14-3.16-.22-6.33-.19-9.51Z"/>
  </g>
  <text class="cls-9" transform="translate(118.34 69.42) scale(1.08 1)"><tspan class="cls-12" x="0" y="0">A</tspan><tspan class="cls-7" x="35.6" y="0">L</tspan><tspan class="cls-2" x="61.85" y="0">P</tspan><tspan class="cls-4" x="91.39" y="0" xml:space="preserve">H  </tspan><tspan class="cls-6" x="153.43" y="0">D</tspan><tspan class="cls-3" x="193.29" y="0">R</tspan><tspan class="cls-11" x="224.87" y="0">I</tspan><tspan class="cls-10" x="235.89" y="0">F</tspan><tspan class="cls-5" x="265.03" y="0">T</tspan></text>
  <path class="cls-8" d="M276.99,50.82l8.86-12.95c1.75-2.72,3.22-5.45,4.57-8.1h.27c.18.35.37.71.55,1.06.14-2.07.25-4.13.32-6.18h-7.72l-30.76,44.76h12.09l9.4-14.08h14.77c.06-1.5.14-3.01.24-4.52h-12.6Z"/>
</svg>